<svg width="67" height="68" viewBox="0 0 67 68" fill="none" xmlns="http://www.w3.org/2000/svg">
<path d="M0 13C0 6.37258 5.37258 1 12 1H55C61.6274 1 67 6.37258 67 13V56C67 62.6274 61.6274 68 55 68H12C5.37258 68 0 62.6274 0 56V13Z" fill="#5CC57C"/>
<path d="M29.7545 17.4269C29.9913 17.158 30.3537 17.0363 30.7048 17.1079L56.1923 22.3026C57.0933 22.4862 57.2897 23.6862 56.4943 24.1475L37.0463 35.4262C36.9318 35.4927 36.8052 35.5357 36.674 35.5528L13.4648 38.5796C12.5494 38.699 11.9749 37.6201 12.585 36.9272L29.7545 17.4269Z" fill="#468058"/>
<path d="M23.3994 60.4658H48.0657" stroke="#D2C8C8" stroke-width="2" stroke-linecap="round" stroke-linejoin="round"/>
<path d="M30.7998 60.4661C44.3662 54.2995 32.7731 44.6797 38.1997 35.7998" stroke="#D2C8C8" stroke-width="2" stroke-linecap="round" stroke-linejoin="round"/>
<path d="M29.5664 34.3196C32.2797 36.2929 34.0064 39.7462 35.2397 43.4462C30.3064 44.4328 26.6065 44.4328 23.3999 42.7062C20.4399 41.2262 17.7266 38.0196 16 32.3463C22.9066 31.113 26.8532 32.3463 29.5664 34.3196Z" stroke="#D2C8C8" stroke-width="2" stroke-linecap="round" stroke-linejoin="round"/>
<path d="M40.9138 25.9333C39.0332 28.8724 38.0872 32.3123 38.2005 35.7998C42.8871 35.5531 46.3404 34.3198 48.807 32.3465C51.2736 29.8799 52.7536 26.6732 53.0003 21C46.3404 21.2467 43.1338 23.4666 40.9138 25.9333Z" stroke="#D2C8C8" stroke-width="2" stroke-linecap="round" stroke-linejoin="round"/>
<path d="M26.9692 9.60697C27.222 9.1812 27.7483 9.0045 28.2067 9.19149L57.5284 21.1501C58.5058 21.5488 58.279 22.9933 57.2264 23.0732L33.5999 24.866C33.4372 24.8784 33.2799 24.9304 33.1418 25.0175L12.1551 38.2651C11.2666 38.8259 10.225 37.8125 10.7614 36.909L26.9692 9.60697Z" fill="#11A166"/>
</svg>
